<?xml version="1.0" standalone="no"?>
<!DOCTYPE svg PUBLIC "-//W3C//DTD SVG 20010904//EN"
 "http://www.w3.org/TR/2001/REC-SVG-20010904/DTD/svg10.dtd">
<svg version="1.0" xmlns="http://www.w3.org/2000/svg"
 width="500.000000pt" height="500.000000pt" viewBox="0 0 500.000000 500.000000"
 preserveAspectRatio="xMidYMid meet">
<metadata>
Created by potrace 1.14, written by Peter Selinger 2001-2017
</metadata>
<g transform="translate(0.000000,500.000000) scale(0.100000,-0.100000)"
fill="#000000" stroke="none">
<path d="M0 2500 l0 -2500 2500 0 2500 0 0 2500 0 2500 -2500 0 -2500 0 0
-2500z m2098 1113 l-3 -138 -81 -3 c-72 -2 -84 -6 -105 -28 -24 -25 -24 -27
-27 -282 -2 -141 -1 -280 3 -308 10 -82 19 -88 127 -94 l93 -5 3 -138 3 -138
-218 3 c-198 3 -221 5 -253 23 -83 50 -100 148 -100 595 1 339 10 481 38 543
41 91 87 105 340 106 l183 1 -3 -137z m1252 -78 l0 -115 70 0 70 0 0 -115 0
-115 -70 0 -70 0 0 -230 c0 -262 -4 -250 89 -250 l51 0 0 -115 0 -115 -158 0
c-144 0 -162 2 -202 23 -32 15 -51 34 -65 62 -18 37 -20 64 -23 333 l-3 292
-40 0 -39 0 0 115 0 115 40 0 40 0 0 115 0 115 155 0 155 0 0 -115z m-866 -82
c28 -4 52 -19 83 -49 l43 -43 0 46 0 46 53 -7 c121 -15 224 -19 231 -7 4 6 11
11 17 11 5 0 9 -189 9 -485 l0 -485 -155 0 -155 0 0 47 0 48 -25 -37 c-14 -21
-34 -42 -45 -48 -31 -17 -256 -13 -290 5 -70 36 -83 127 -78 547 3 289 5 316
22 343 26 40 44 49 88 46 31 -2 37 0 32 13 -5 14 4 16 62 16 38 0 87 -3 108
-7z m-1137 -958 c58 -17 103 -61 124 -122 10 -27 14 -94 14 -233 0 -221 -10
-266 -71 -319 -33 -30 -116 -61 -160 -61 -48 0 -30 -17 36 -34 158 -40 200
-112 200 -346 0 -196 -27 -295 -93 -344 -28 -20 -40 -21 -458 -24 l-429 -3 0
751 0 750 393 0 c322 0 403 -3 444 -15z m2633 -335 c0 -340 -1 -350 -20 -360
-30 -16 -41 -4 -29 29 14 39 -12 81 -50 81 -14 0 -38 7 -53 14 -16 8 -28 11
-28 6 0 -5 -11 -17 -24 -25 -23 -15 -27 -15 -65 11 -23 15 -44 24 -48 20 -9
-9 24 -135 44 -166 9 -14 20 -41 24 -60 4 -19 13 -53 20 -76 12 -39 11 -44
-28 -120 -39 -75 -70 -166 -91 -264 -7 -31 -10 162 -11 608 l-1 652 180 0 180
0 0 -350z m-1999 -1 c19 -7 55 -32 81 -57 l47 -45 3 54 3 54 178 3 177 2 0
-580 0 -580 -180 0 -180 0 0 57 0 57 -29 -45 c-41 -65 -70 -74 -226 -73 -142
1 -175 11 -214 59 -37 49 -42 111 -39 566 l3 434 24 34 c39 54 89 71 212 71
58 0 121 -5 140 -11z m979 -49 l0 -59 48 48 c61 61 115 76 247 69 118 -6 171
-30 206 -91 l24 -42 0 -510 0 -510 -177 -3 -177 -2 -3 414 c-3 404 -4 415 -24
443 -30 40 -88 40 -118 0 -20 -28 -21 -39 -24 -443 l-3 -414 -179 0 -180 0 0
573 c0 316 3 577 7 580 3 4 84 7 180 7 l173 0 0 -60z m1534 -116 c-1 -198 -11
-241 -73 -297 -33 -30 -132 -77 -161 -77 -6 0 -10 -3 -10 -7 0 -5 26 -16 58
-25 78 -23 134 -66 163 -124 20 -43 23 -68 29 -233 4 -102 10 -194 15 -203 7
-17 -5 -18 -173 -18 -162 0 -181 2 -187 18 -4 9 -11 86 -15 170 -6 104 -14
163 -24 184 -9 17 -14 33 -12 35 4 4 45 -13 66 -28 11 -7 23 -7 43 0 23 9 28
16 25 39 -4 37 -53 59 -153 69 l-80 8 -8 55 c-5 37 -3 70 6 100 11 39 19 48
59 68 40 19 49 28 60 65 12 42 54 108 73 116 18 7 75 74 75 88 0 22 -35 14
-76 -17 -21 -16 -42 -30 -46 -30 -5 0 -8 50 -8 110 l0 110 178 -2 177 -3 -1
-171z m-514 -785 l0 -190 -32 3 -33 3 3 56 c2 31 12 74 22 95 15 29 20 59 20
124 0 76 4 100 17 100 2 0 3 -86 3 -191z m-307 -196 c-7 -2 -21 -2 -30 0 -10
3 -4 5 12 5 17 0 24 -2 18 -5z"/>
<path d="M2499 3213 c-11 -12 -15 -68 -17 -234 l-3 -219 25 -25 c30 -30 46
-31 77 -6 24 19 24 23 27 222 3 215 1 238 -24 263 -20 21 -68 20 -85 -1z"/>
<path d="M920 2050 l0 -130 39 0 c62 0 101 19 117 56 26 62 11 161 -29 189
-13 9 -43 15 -74 15 l-53 0 0 -130z"/>
<path d="M920 1465 l0 -125 54 0 c44 0 61 5 83 24 26 23 28 29 28 101 0 72 -2
78 -28 101 -22 19 -39 24 -83 24 l-54 0 0 -125z"/>
<path d="M1981 1874 c-20 -25 -21 -39 -21 -279 0 -240 1 -254 21 -279 26 -33
77 -36 105 -5 18 20 19 40 19 286 l0 265 -24 19 c-34 27 -75 24 -100 -7z"/>
</g>
</svg>
